<mxfile host="app.diagrams.net" agent="Mozilla/5.0 (Windows NT 10.0; Win64; x64) AppleWebKit/537.36 (KHTML, like Gecko) Chrome/133.0.0.0 Safari/537.36" version="26.0.13">
  <diagram name="Page-1" id="Sp0kSGagwT-iGQFGibRv">
    <mxGraphModel dx="2390" dy="1230" grid="1" gridSize="10" guides="1" tooltips="1" connect="1" arrows="1" fold="1" page="1" pageScale="1" pageWidth="850" pageHeight="1100" math="0" shadow="0">
      <root>
        <mxCell id="0" />
        <mxCell id="1" parent="0" />
        <mxCell id="9FoGW_D2n53dwd2XnwSj-1" value="Azure Container Apps" style="rounded=1;whiteSpace=wrap;html=1;shadow=0;align=right;labelPosition=left;verticalLabelPosition=top;verticalAlign=bottom;arcSize=5;" parent="1" vertex="1">
          <mxGeometry x="125" y="295" width="625" height="510" as="geometry" />
        </mxCell>
        <mxCell id="kmiRimy0_0MPAgb4fWM8-5" style="edgeStyle=orthogonalEdgeStyle;rounded=0;orthogonalLoop=1;jettySize=auto;html=1;" edge="1" parent="1" source="9FoGW_D2n53dwd2XnwSj-20" target="9FoGW_D2n53dwd2XnwSj-21">
          <mxGeometry relative="1" as="geometry">
            <Array as="points">
              <mxPoint x="440" y="550" />
              <mxPoint x="294" y="550" />
            </Array>
          </mxGeometry>
        </mxCell>
        <mxCell id="kmiRimy0_0MPAgb4fWM8-6" style="edgeStyle=orthogonalEdgeStyle;rounded=0;orthogonalLoop=1;jettySize=auto;html=1;entryX=0.5;entryY=0;entryDx=0;entryDy=0;" edge="1" parent="1" source="9FoGW_D2n53dwd2XnwSj-20" target="9FoGW_D2n53dwd2XnwSj-22">
          <mxGeometry relative="1" as="geometry" />
        </mxCell>
        <mxCell id="kmiRimy0_0MPAgb4fWM8-7" style="edgeStyle=orthogonalEdgeStyle;rounded=0;orthogonalLoop=1;jettySize=auto;html=1;entryX=0.5;entryY=0;entryDx=0;entryDy=0;" edge="1" parent="1" source="9FoGW_D2n53dwd2XnwSj-20" target="9FoGW_D2n53dwd2XnwSj-23">
          <mxGeometry relative="1" as="geometry">
            <Array as="points">
              <mxPoint x="440" y="550" />
              <mxPoint x="620" y="550" />
            </Array>
          </mxGeometry>
        </mxCell>
        <mxCell id="kmiRimy0_0MPAgb4fWM8-8" style="edgeStyle=orthogonalEdgeStyle;rounded=0;orthogonalLoop=1;jettySize=auto;html=1;entryX=0;entryY=0.5;entryDx=0;entryDy=0;dashed=1;" edge="1" parent="1" source="9FoGW_D2n53dwd2XnwSj-20" target="9FoGW_D2n53dwd2XnwSj-10">
          <mxGeometry relative="1" as="geometry" />
        </mxCell>
        <mxCell id="kmiRimy0_0MPAgb4fWM8-9" style="edgeStyle=orthogonalEdgeStyle;rounded=0;orthogonalLoop=1;jettySize=auto;html=1;entryX=1;entryY=0.5;entryDx=0;entryDy=0;dashed=1;" edge="1" parent="1" source="9FoGW_D2n53dwd2XnwSj-20" target="9FoGW_D2n53dwd2XnwSj-13">
          <mxGeometry relative="1" as="geometry">
            <Array as="points">
              <mxPoint x="680" y="474" />
              <mxPoint x="680" y="500" />
              <mxPoint x="1140" y="500" />
              <mxPoint x="1140" y="450" />
            </Array>
          </mxGeometry>
        </mxCell>
        <mxCell id="9FoGW_D2n53dwd2XnwSj-20" value="" style="rounded=1;whiteSpace=wrap;html=1;" parent="1" vertex="1">
          <mxGeometry x="380" y="444" width="120" height="60" as="geometry" />
        </mxCell>
        <mxCell id="7LXzgQbhUrc-IhmmMyrC-1" value="" style="image;aspect=fixed;html=1;points=[];align=center;fontSize=12;image=img/lib/azure2/other/Worker_Container_App.svg;" parent="1" vertex="1">
          <mxGeometry x="155" y="310" width="68" height="66" as="geometry" />
        </mxCell>
        <mxCell id="9FoGW_D2n53dwd2XnwSj-3" value="" style="rounded=1;whiteSpace=wrap;html=1;" parent="1" vertex="1">
          <mxGeometry x="125" y="180" width="625" height="60" as="geometry" />
        </mxCell>
        <mxCell id="9FoGW_D2n53dwd2XnwSj-4" value="" style="image;aspect=fixed;html=1;points=[];align=center;fontSize=12;image=img/lib/azure2/containers/Container_Registries.svg;" parent="1" vertex="1">
          <mxGeometry x="130" y="180" width="68" height="61" as="geometry" />
        </mxCell>
        <mxCell id="9FoGW_D2n53dwd2XnwSj-18" value="" style="edgeStyle=orthogonalEdgeStyle;rounded=0;orthogonalLoop=1;jettySize=auto;html=1;" parent="1" source="9FoGW_D2n53dwd2XnwSj-5" target="9FoGW_D2n53dwd2XnwSj-14" edge="1">
          <mxGeometry relative="1" as="geometry" />
        </mxCell>
        <mxCell id="9FoGW_D2n53dwd2XnwSj-5" value="API Gateway" style="rounded=1;whiteSpace=wrap;html=1;" parent="1" vertex="1">
          <mxGeometry x="380" y="330" width="120" height="60" as="geometry" />
        </mxCell>
        <mxCell id="9FoGW_D2n53dwd2XnwSj-7" value="" style="image;aspect=fixed;html=1;points=[];align=center;fontSize=12;image=img/lib/azure2/integration/API_Management_Services.svg;" parent="1" vertex="1">
          <mxGeometry x="385" y="330" width="65" height="60" as="geometry" />
        </mxCell>
        <mxCell id="9FoGW_D2n53dwd2XnwSj-11" style="edgeStyle=orthogonalEdgeStyle;rounded=0;orthogonalLoop=1;jettySize=auto;html=1;entryX=1;entryY=0.5;entryDx=0;entryDy=0;" parent="1" source="9FoGW_D2n53dwd2XnwSj-1" target="9FoGW_D2n53dwd2XnwSj-5" edge="1">
          <mxGeometry relative="1" as="geometry">
            <Array as="points">
              <mxPoint x="418" y="130" />
              <mxPoint x="780" y="130" />
              <mxPoint x="780" y="360" />
            </Array>
          </mxGeometry>
        </mxCell>
        <mxCell id="9FoGW_D2n53dwd2XnwSj-8" value="" style="outlineConnect=0;dashed=0;verticalLabelPosition=bottom;verticalAlign=top;align=center;html=1;shape=mxgraph.aws3.mobile_client;fillColor=#D2D3D3;gradientColor=none;" parent="1" vertex="1">
          <mxGeometry x="397.25" y="40" width="40.5" height="63" as="geometry" />
        </mxCell>
        <mxCell id="9FoGW_D2n53dwd2XnwSj-10" value="Entra ID&amp;nbsp;&lt;div&gt;&lt;br&gt;&lt;/div&gt;&lt;div&gt;OAuth2.0&lt;/div&gt;" style="rounded=1;whiteSpace=wrap;html=1;" parent="1" vertex="1">
          <mxGeometry x="864" y="420" width="120" height="60" as="geometry" />
        </mxCell>
        <mxCell id="9FoGW_D2n53dwd2XnwSj-9" value="" style="image;aspect=fixed;html=1;points=[];align=center;fontSize=12;image=img/lib/azure2/identity/Entra_ID_Protection.svg;" parent="1" vertex="1">
          <mxGeometry x="890" y="340" width="68" height="60.440000000000005" as="geometry" />
        </mxCell>
        <mxCell id="9FoGW_D2n53dwd2XnwSj-12" value="" style="image;aspect=fixed;html=1;points=[];align=center;fontSize=12;image=img/lib/azure2/security/Key_Vaults.svg;" parent="1" vertex="1">
          <mxGeometry x="1000" y="340" width="68" height="68" as="geometry" />
        </mxCell>
        <mxCell id="9FoGW_D2n53dwd2XnwSj-13" value="&lt;div&gt;Key Vault&lt;/div&gt;&lt;div&gt;&lt;span style=&quot;background-color: transparent; color: light-dark(rgb(0, 0, 0), rgb(255, 255, 255));&quot;&gt;&lt;br&gt;&lt;/span&gt;&lt;/div&gt;&lt;div&gt;&lt;span style=&quot;background-color: transparent; color: light-dark(rgb(0, 0, 0), rgb(255, 255, 255));&quot;&gt;TLS/SSL&lt;/span&gt;&lt;/div&gt;" style="rounded=1;whiteSpace=wrap;html=1;" parent="1" vertex="1">
          <mxGeometry x="1000" y="420" width="120" height="60" as="geometry" />
        </mxCell>
        <mxCell id="9FoGW_D2n53dwd2XnwSj-14" value="Azure Spring Eureka" style="image;aspect=fixed;html=1;points=[];align=center;fontSize=12;image=img/lib/azure2/compute/Azure_Spring_Cloud.svg;" parent="1" vertex="1">
          <mxGeometry x="406" y="440" width="68" height="68" as="geometry" />
        </mxCell>
        <mxCell id="9FoGW_D2n53dwd2XnwSj-19" value="Azure Spring Cloud" style="image;aspect=fixed;html=1;points=[];align=center;fontSize=12;image=img/lib/azure2/compute/Azure_Spring_Cloud.svg;" parent="1" vertex="1">
          <mxGeometry x="770" y="530.44" width="68" height="68" as="geometry" />
        </mxCell>
        <mxCell id="kmiRimy0_0MPAgb4fWM8-3" value="" style="edgeStyle=orthogonalEdgeStyle;rounded=0;orthogonalLoop=1;jettySize=auto;html=1;" edge="1" parent="1" source="9FoGW_D2n53dwd2XnwSj-21" target="9FoGW_D2n53dwd2XnwSj-25">
          <mxGeometry relative="1" as="geometry" />
        </mxCell>
        <mxCell id="9FoGW_D2n53dwd2XnwSj-21" value="Package srv" style="rounded=1;whiteSpace=wrap;html=1;" parent="1" vertex="1">
          <mxGeometry x="234" y="598.44" width="120" height="60" as="geometry" />
        </mxCell>
        <mxCell id="kmiRimy0_0MPAgb4fWM8-2" style="edgeStyle=orthogonalEdgeStyle;rounded=0;orthogonalLoop=1;jettySize=auto;html=1;" edge="1" parent="1" source="9FoGW_D2n53dwd2XnwSj-22" target="kmiRimy0_0MPAgb4fWM8-1">
          <mxGeometry relative="1" as="geometry" />
        </mxCell>
        <mxCell id="9FoGW_D2n53dwd2XnwSj-22" value="Delivery srv" style="rounded=1;whiteSpace=wrap;html=1;" parent="1" vertex="1">
          <mxGeometry x="397.25" y="598.44" width="120" height="60" as="geometry" />
        </mxCell>
        <mxCell id="9FoGW_D2n53dwd2XnwSj-23" value="" style="rounded=1;whiteSpace=wrap;html=1;" parent="1" vertex="1">
          <mxGeometry x="560" y="598.44" width="120" height="60" as="geometry" />
        </mxCell>
        <mxCell id="9FoGW_D2n53dwd2XnwSj-24" value="Azure Oracle DB" style="image;aspect=fixed;html=1;points=[];align=center;fontSize=12;image=img/lib/azure2/databases/Oracle_Database.svg;" parent="1" vertex="1">
          <mxGeometry x="250" y="860" width="68" height="68" as="geometry" />
        </mxCell>
        <mxCell id="9FoGW_D2n53dwd2XnwSj-26" style="edgeStyle=orthogonalEdgeStyle;rounded=0;orthogonalLoop=1;jettySize=auto;html=1;" parent="1" source="9FoGW_D2n53dwd2XnwSj-25" target="9FoGW_D2n53dwd2XnwSj-24" edge="1">
          <mxGeometry relative="1" as="geometry" />
        </mxCell>
        <mxCell id="9FoGW_D2n53dwd2XnwSj-25" value="Middleware" style="rounded=1;whiteSpace=wrap;html=1;" parent="1" vertex="1">
          <mxGeometry x="234" y="710" width="120" height="60" as="geometry" />
        </mxCell>
        <mxCell id="kmiRimy0_0MPAgb4fWM8-1" value="Azure Cosmos DB" style="image;aspect=fixed;html=1;points=[];align=center;fontSize=12;image=img/lib/azure2/databases/Azure_Cosmos_DB.svg;" vertex="1" parent="1">
          <mxGeometry x="420" y="860" width="64" height="64" as="geometry" />
        </mxCell>
        <mxCell id="kmiRimy0_0MPAgb4fWM8-11" value="" style="edgeStyle=orthogonalEdgeStyle;rounded=0;orthogonalLoop=1;jettySize=auto;html=1;entryX=1;entryY=0.5;entryDx=0;entryDy=0;" edge="1" parent="1" source="9FoGW_D2n53dwd2XnwSj-8" target="9FoGW_D2n53dwd2XnwSj-1">
          <mxGeometry relative="1" as="geometry">
            <Array as="points" />
            <mxPoint x="418" y="103" as="sourcePoint" />
            <mxPoint x="500" y="360" as="targetPoint" />
          </mxGeometry>
        </mxCell>
      </root>
    </mxGraphModel>
  </diagram>
</mxfile>
